<svg xmlns="http://www.w3.org/2000/svg" xmlns:xlink="http://www.w3.org/1999/xlink" width="500" zoomAndPan="magnify" viewBox="0 -18 375 374.999991" height="500" preserveAspectRatio="xMidYMid meet" version="1.0"><defs><g/><clipPath id="6f6356942a"><path d="M 3.171875 133.332031 L 78.171875 133.332031 L 78.171875 193 L 3.171875 193 Z M 3.171875 133.332031 " clip-rule="nonzero"/></clipPath></defs><g fill="#ffffff" fill-opacity="1"><g transform="translate(103.632265, 172.568824)"><g><path d="M 13.46875 -31.3125 L 13.46875 -25.65625 L 11.125 -25.65625 L 11.125 -5.609375 L 13.46875 -5.609375 L 13.46875 0 L 2.078125 0 L 2.078125 -5.609375 L 4.421875 -5.609375 L 4.421875 -25.65625 L 2.078125 -25.65625 L 2.078125 -31.3125 Z M 13.46875 -31.3125 "/></g></g></g><g fill="#ffffff" fill-opacity="1"><g transform="translate(119.137342, 172.568824)"><g><path d="M 13.390625 -21.90625 C 14.210938 -21.90625 15.125 -21.785156 16.125 -21.546875 C 17.125 -21.316406 18.066406 -20.878906 18.953125 -20.234375 C 19.835938 -19.585938 20.578125 -18.6875 21.171875 -17.53125 C 21.773438 -16.382812 22.078125 -14.898438 22.078125 -13.078125 L 22.078125 0 L 15.953125 0 L 15.953125 -12.859375 C 15.953125 -13.535156 15.835938 -14.109375 15.609375 -14.578125 C 15.390625 -15.046875 15.09375 -15.421875 14.71875 -15.703125 C 14.351562 -15.984375 13.9375 -16.1875 13.46875 -16.3125 C 13 -16.445312 12.53125 -16.515625 12.0625 -16.515625 C 11.675781 -16.515625 11.253906 -16.445312 10.796875 -16.3125 C 10.335938 -16.1875 9.910156 -15.972656 9.515625 -15.671875 C 9.117188 -15.378906 8.785156 -15 8.515625 -14.53125 C 8.253906 -14.0625 8.125 -13.503906 8.125 -12.859375 L 8.125 0 L 2.03125 0 L 2.03125 -21.90625 L 7.25 -21.90625 L 8.125 -20.234375 C 8.832031 -20.734375 9.628906 -21.132812 10.515625 -21.4375 C 11.398438 -21.75 12.359375 -21.90625 13.390625 -21.90625 Z M 13.390625 -21.90625 "/></g></g></g><g fill="#ffffff" fill-opacity="1"><g transform="translate(143.035482, 172.568824)"><g><path d="M 14.671875 -22.53125 C 16.203125 -22.53125 17.628906 -22.226562 18.953125 -21.625 C 20.273438 -21.019531 21.421875 -20.191406 22.390625 -19.140625 C 23.367188 -18.097656 24.128906 -16.878906 24.671875 -15.484375 C 25.210938 -14.085938 25.484375 -12.59375 25.484375 -11 C 25.484375 -9.40625 25.210938 -7.910156 24.671875 -6.515625 C 24.128906 -5.117188 23.367188 -3.894531 22.390625 -2.84375 C 21.421875 -1.800781 20.273438 -0.976562 18.953125 -0.375 C 17.628906 0.226562 16.203125 0.53125 14.671875 0.53125 C 13.367188 0.53125 12.117188 0.300781 10.921875 -0.15625 C 9.734375 -0.613281 8.800781 -1.195312 8.125 -1.90625 L 7.25 0 L 2.03125 0 L 2.03125 -32.25 L 8.125 -32.25 L 8.125 -20.140625 C 9.800781 -21.734375 11.984375 -22.53125 14.671875 -22.53125 Z M 13.828125 -4.90625 C 14.617188 -4.90625 15.359375 -5.066406 16.046875 -5.390625 C 16.742188 -5.710938 17.359375 -6.144531 17.890625 -6.6875 C 18.421875 -7.238281 18.832031 -7.878906 19.125 -8.609375 C 19.414062 -9.347656 19.5625 -10.144531 19.5625 -11 C 19.5625 -11.820312 19.414062 -12.609375 19.125 -13.359375 C 18.832031 -14.109375 18.421875 -14.753906 17.890625 -15.296875 C 17.359375 -15.847656 16.742188 -16.285156 16.046875 -16.609375 C 15.359375 -16.929688 14.617188 -17.09375 13.828125 -17.09375 C 13.035156 -17.09375 12.289062 -16.984375 11.59375 -16.765625 C 10.90625 -16.546875 10.300781 -16.191406 9.78125 -15.703125 C 9.269531 -15.210938 8.863281 -14.578125 8.5625 -13.796875 C 8.269531 -13.023438 8.125 -12.0625 8.125 -10.90625 C 8.125 -9.875 8.269531 -8.984375 8.5625 -8.234375 C 8.863281 -7.484375 9.269531 -6.863281 9.78125 -6.375 C 10.300781 -5.894531 10.90625 -5.53125 11.59375 -5.28125 C 12.289062 -5.03125 13.035156 -4.90625 13.828125 -4.90625 Z M 13.828125 -4.90625 "/></g></g></g><g fill="#ffffff" fill-opacity="1"><g transform="translate(169.142323, 172.568824)"><g><path d="M 12.765625 -22.53125 C 14.328125 -22.53125 15.800781 -22.226562 17.1875 -21.625 C 18.570312 -21.019531 19.773438 -20.191406 20.796875 -19.140625 C 21.828125 -18.097656 22.644531 -16.878906 23.25 -15.484375 C 23.851562 -14.085938 24.15625 -12.59375 24.15625 -11 C 24.15625 -9.40625 23.851562 -7.910156 23.25 -6.515625 C 22.644531 -5.117188 21.828125 -3.894531 20.796875 -2.84375 C 19.773438 -1.800781 18.570312 -0.976562 17.1875 -0.375 C 15.800781 0.226562 14.328125 0.53125 12.765625 0.53125 C 11.171875 0.53125 9.679688 0.226562 8.296875 -0.375 C 6.921875 -0.976562 5.71875 -1.800781 4.6875 -2.84375 C 3.65625 -3.894531 2.835938 -5.117188 2.234375 -6.515625 C 1.628906 -7.910156 1.328125 -9.40625 1.328125 -11 C 1.328125 -12.59375 1.628906 -14.085938 2.234375 -15.484375 C 2.835938 -16.878906 3.65625 -18.097656 4.6875 -19.140625 C 5.71875 -20.191406 6.921875 -21.019531 8.296875 -21.625 C 9.679688 -22.226562 11.171875 -22.53125 12.765625 -22.53125 Z M 12.765625 -4.8125 C 13.503906 -4.8125 14.1875 -4.957031 14.8125 -5.25 C 15.445312 -5.550781 16.007812 -5.957031 16.5 -6.46875 C 16.988281 -6.988281 17.367188 -7.609375 17.640625 -8.328125 C 17.921875 -9.046875 18.0625 -9.847656 18.0625 -10.734375 C 18.0625 -11.617188 17.921875 -12.441406 17.640625 -13.203125 C 17.367188 -13.972656 16.988281 -14.644531 16.5 -15.21875 C 16.007812 -15.789062 15.445312 -16.242188 14.8125 -16.578125 C 14.1875 -16.921875 13.503906 -17.09375 12.765625 -17.09375 C 12.023438 -17.09375 11.332031 -16.921875 10.6875 -16.578125 C 10.039062 -16.242188 9.472656 -15.789062 8.984375 -15.21875 C 8.503906 -14.644531 8.125 -13.972656 7.84375 -13.203125 C 7.5625 -12.441406 7.421875 -11.617188 7.421875 -10.734375 C 7.421875 -9.847656 7.5625 -9.046875 7.84375 -8.328125 C 8.125 -7.609375 8.503906 -6.988281 8.984375 -6.46875 C 9.472656 -5.957031 10.039062 -5.550781 10.6875 -5.25 C 11.332031 -4.957031 12.023438 -4.8125 12.765625 -4.8125 Z M 12.765625 -4.8125 "/></g></g></g><g fill="#ffffff" fill-opacity="1"><g transform="translate(194.498204, 172.568824)"><g><path d="M 10.15625 -11.4375 L 2.34375 -21.90625 L 9.890625 -21.90625 L 13.78125 -16.078125 L 17.671875 -21.90625 L 25.21875 -21.90625 L 17.359375 -11.390625 L 25.890625 0 L 18.328125 0 L 13.734375 -6.796875 L 9.140625 0 L 1.59375 0 Z M 10.15625 -11.4375 "/></g></g></g><g fill="#ffffff" fill-opacity="1"><g transform="translate(221.974429, 172.568824)"><g><path d="M 22 -16.125 C 23.238281 -15.382812 24.179688 -14.441406 24.828125 -13.296875 C 25.472656 -12.148438 25.796875 -10.820312 25.796875 -9.3125 C 25.796875 -7.90625 25.457031 -6.585938 24.78125 -5.359375 C 24.101562 -4.140625 23.144531 -3.0625 21.90625 -2.125 C 20.789062 -1.269531 19.519531 -0.613281 18.09375 -0.15625 C 16.664062 0.300781 15.15625 0.546875 13.5625 0.578125 C 11.96875 0.578125 10.445312 0.359375 9 -0.078125 C 7.5625 -0.523438 6.285156 -1.191406 5.171875 -2.078125 C 3.492188 -3.335938 2.34375 -4.867188 1.71875 -6.671875 L 7.90625 -9.546875 C 7.90625 -9.242188 8.007812 -8.875 8.21875 -8.4375 C 8.425781 -8 8.75 -7.570312 9.1875 -7.15625 C 9.625 -6.738281 10.195312 -6.382812 10.90625 -6.09375 C 11.613281 -5.800781 12.484375 -5.65625 13.515625 -5.65625 C 14.335938 -5.65625 15.066406 -5.753906 15.703125 -5.953125 C 16.335938 -6.160156 16.867188 -6.421875 17.296875 -6.734375 C 17.722656 -7.046875 18.046875 -7.398438 18.265625 -7.796875 C 18.484375 -8.191406 18.59375 -8.597656 18.59375 -9.015625 C 18.59375 -9.484375 18.4375 -9.921875 18.125 -10.328125 C 17.820312 -10.742188 17.347656 -11.070312 16.703125 -11.3125 C 15.523438 -11.71875 14.28125 -12.0625 12.96875 -12.34375 C 11.65625 -12.625 10.378906 -12.976562 9.140625 -13.40625 C 7.898438 -13.832031 6.75 -14.398438 5.6875 -15.109375 C 4.632812 -15.816406 3.800781 -16.800781 3.1875 -18.0625 C 2.625 -19.1875 2.34375 -20.378906 2.34375 -21.640625 C 2.34375 -23.054688 2.671875 -24.425781 3.328125 -25.75 C 3.992188 -27.070312 4.898438 -28.191406 6.046875 -29.109375 C 7.140625 -29.960938 8.363281 -30.617188 9.71875 -31.078125 C 11.070312 -31.535156 12.5 -31.765625 14 -31.765625 C 15.5 -31.765625 16.929688 -31.539062 18.296875 -31.09375 C 19.671875 -30.65625 20.90625 -30.007812 22 -29.15625 C 23.0625 -28.351562 23.898438 -27.425781 24.515625 -26.375 L 19.484375 -22.921875 C 18.859375 -23.773438 18.082031 -24.457031 17.15625 -24.96875 C 16.226562 -25.488281 15.191406 -25.75 14.046875 -25.75 C 12.453125 -25.75 11.222656 -25.394531 10.359375 -24.6875 C 9.492188 -23.976562 9.0625 -23.050781 9.0625 -21.90625 C 9.0625 -21.375 9.300781 -20.898438 9.78125 -20.484375 C 10.269531 -20.078125 10.90625 -19.710938 11.6875 -19.390625 C 12.46875 -19.066406 13.34375 -18.78125 14.3125 -18.53125 C 15.28125 -18.28125 16.242188 -18.03125 17.203125 -17.78125 C 18.160156 -17.53125 19.066406 -17.269531 19.921875 -17 C 20.773438 -16.738281 21.46875 -16.445312 22 -16.125 Z M 22 -16.125 "/></g></g></g><g fill="#ffffff" fill-opacity="1"><g transform="translate(249.18562, 172.568824)"><g><path d="M 12.8125 -22.53125 C 14.457031 -22.53125 15.957031 -22.195312 17.3125 -21.53125 C 18.664062 -20.875 19.828125 -20.003906 20.796875 -18.921875 C 21.773438 -17.847656 22.53125 -16.613281 23.0625 -15.21875 C 23.59375 -13.820312 23.859375 -12.382812 23.859375 -10.90625 C 23.859375 -10.019531 23.738281 -9.078125 23.5 -8.078125 L 7.859375 -8.078125 C 8.453125 -7.078125 9.289062 -6.226562 10.375 -5.53125 C 11.46875 -4.84375 12.648438 -4.5 13.921875 -4.5 C 15.179688 -4.5 16.289062 -4.601562 17.25 -4.8125 C 18.207031 -5.019531 19.113281 -5.285156 19.96875 -5.609375 L 22 -1.859375 C 20.90625 -1.085938 19.660156 -0.492188 18.265625 -0.078125 C 16.867188 0.328125 15.375 0.53125 13.78125 0.53125 C 12.039062 0.53125 10.421875 0.226562 8.921875 -0.375 C 7.421875 -0.976562 6.109375 -1.796875 4.984375 -2.828125 C 3.867188 -3.859375 2.988281 -5.078125 2.34375 -6.484375 C 1.695312 -7.898438 1.375 -9.40625 1.375 -11 C 1.375 -12.5625 1.664062 -14.039062 2.25 -15.4375 C 2.84375 -16.832031 3.660156 -18.050781 4.703125 -19.09375 C 5.742188 -20.144531 6.957031 -20.976562 8.34375 -21.59375 C 9.726562 -22.21875 11.21875 -22.53125 12.8125 -22.53125 Z M 17.796875 -12.8125 C 17.441406 -14.070312 16.804688 -15.097656 15.890625 -15.890625 C 14.984375 -16.691406 13.957031 -17.09375 12.8125 -17.09375 C 11.632812 -17.09375 10.566406 -16.691406 9.609375 -15.890625 C 8.648438 -15.097656 7.992188 -14.070312 7.640625 -12.8125 Z M 17.796875 -12.8125 "/></g></g></g><g fill="#ffffff" fill-opacity="1"><g transform="translate(275.46915, 172.568824)"><g><path d="M 12.765625 -17.09375 C 12.023438 -17.09375 11.332031 -16.921875 10.6875 -16.578125 C 10.039062 -16.242188 9.472656 -15.789062 8.984375 -15.21875 C 8.503906 -14.644531 8.125 -13.972656 7.84375 -13.203125 C 7.5625 -12.441406 7.421875 -11.617188 7.421875 -10.734375 C 7.421875 -9.847656 7.5625 -9.046875 7.84375 -8.328125 C 8.125 -7.609375 8.503906 -6.988281 8.984375 -6.46875 C 9.472656 -5.957031 10.039062 -5.550781 10.6875 -5.25 C 11.332031 -4.957031 12.023438 -4.8125 12.765625 -4.8125 C 13.679688 -4.8125 14.570312 -5.023438 15.4375 -5.453125 C 16.300781 -5.878906 17.046875 -6.476562 17.671875 -7.25 L 21.421875 -3.53125 C 20.390625 -2.289062 19.125 -1.300781 17.625 -0.5625 C 16.125 0.164062 14.503906 0.53125 12.765625 0.53125 C 11.171875 0.53125 9.679688 0.226562 8.296875 -0.375 C 6.921875 -0.976562 5.71875 -1.800781 4.6875 -2.84375 C 3.65625 -3.894531 2.835938 -5.117188 2.234375 -6.515625 C 1.628906 -7.910156 1.328125 -9.40625 1.328125 -11 C 1.328125 -12.59375 1.628906 -14.085938 2.234375 -15.484375 C 2.835938 -16.878906 3.65625 -18.097656 4.6875 -19.140625 C 5.71875 -20.191406 6.921875 -21.019531 8.296875 -21.625 C 9.679688 -22.226562 11.171875 -22.53125 12.765625 -22.53125 C 14.554688 -22.53125 16.21875 -22.144531 17.75 -21.375 C 19.28125 -20.613281 20.578125 -19.570312 21.640625 -18.25 L 17.40625 -14.96875 C 16.550781 -15.769531 15.773438 -16.320312 15.078125 -16.625 C 14.390625 -16.9375 13.617188 -17.09375 12.765625 -17.09375 Z M 12.765625 -17.09375 "/></g></g></g><g fill="#ffffff" fill-opacity="1"><g transform="translate(298.218774, 172.568824)"><g><path d="M 15.859375 -21.90625 L 21.953125 -21.90625 L 21.953125 0 L 16.734375 0 L 15.859375 -1.671875 C 15.148438 -1.171875 14.347656 -0.765625 13.453125 -0.453125 C 12.554688 -0.148438 11.59375 0 10.5625 0 C 9.757812 0 8.847656 -0.113281 7.828125 -0.34375 C 6.816406 -0.582031 5.867188 -1.023438 4.984375 -1.671875 C 4.109375 -2.328125 3.367188 -3.226562 2.765625 -4.375 C 2.160156 -5.519531 1.859375 -7.003906 1.859375 -8.828125 L 1.859375 -21.90625 L 8 -21.90625 L 8 -9.0625 C 8 -8.382812 8.109375 -7.804688 8.328125 -7.328125 C 8.546875 -6.859375 8.835938 -6.484375 9.203125 -6.203125 C 9.578125 -5.921875 10 -5.710938 10.46875 -5.578125 C 10.9375 -5.453125 11.421875 -5.390625 11.921875 -5.390625 C 12.304688 -5.390625 12.726562 -5.453125 13.1875 -5.578125 C 13.644531 -5.710938 14.070312 -5.925781 14.46875 -6.21875 C 14.863281 -6.519531 15.191406 -6.90625 15.453125 -7.375 C 15.722656 -7.84375 15.859375 -8.40625 15.859375 -9.0625 Z M 15.859375 -21.90625 "/></g></g></g><g fill="#ffffff" fill-opacity="1"><g transform="translate(322.20526, 172.568824)"><g><path d="M 8 -18.859375 C 8.289062 -19.328125 8.625 -19.773438 9 -20.203125 C 9.382812 -20.628906 9.84375 -21.007812 10.375 -21.34375 C 10.90625 -21.6875 11.507812 -21.960938 12.1875 -22.171875 C 12.863281 -22.378906 13.628906 -22.484375 14.484375 -22.484375 C 15.484375 -22.484375 16.648438 -22.304688 17.984375 -21.953125 L 17.40625 -16.515625 C 17.082031 -16.578125 16.757812 -16.648438 16.4375 -16.734375 C 16.164062 -16.796875 15.867188 -16.847656 15.546875 -16.890625 C 15.222656 -16.941406 14.929688 -16.96875 14.671875 -16.96875 C 13.722656 -16.96875 12.84375 -16.832031 12.03125 -16.5625 C 11.226562 -16.300781 10.53125 -15.929688 9.9375 -15.453125 C 9.351562 -14.984375 8.882812 -14.414062 8.53125 -13.75 C 8.175781 -13.09375 8 -12.378906 8 -11.609375 L 8 0 L 1.90625 0 L 1.90625 -21.90625 L 7.421875 -21.90625 Z M 8 -18.859375 "/></g></g></g><g fill="#ffffff" fill-opacity="1"><g transform="translate(340.40495, 172.568824)"><g><path d="M 12.8125 -22.53125 C 14.457031 -22.53125 15.957031 -22.195312 17.3125 -21.53125 C 18.664062 -20.875 19.828125 -20.003906 20.796875 -18.921875 C 21.773438 -17.847656 22.53125 -16.613281 23.0625 -15.21875 C 23.59375 -13.820312 23.859375 -12.382812 23.859375 -10.90625 C 23.859375 -10.019531 23.738281 -9.078125 23.5 -8.078125 L 7.859375 -8.078125 C 8.453125 -7.078125 9.289062 -6.226562 10.375 -5.53125 C 11.46875 -4.84375 12.648438 -4.5 13.921875 -4.5 C 15.179688 -4.5 16.289062 -4.601562 17.25 -4.8125 C 18.207031 -5.019531 19.113281 -5.285156 19.96875 -5.609375 L 22 -1.859375 C 20.90625 -1.085938 19.660156 -0.492188 18.265625 -0.078125 C 16.867188 0.328125 15.375 0.53125 13.78125 0.53125 C 12.039062 0.53125 10.421875 0.226562 8.921875 -0.375 C 7.421875 -0.976562 6.109375 -1.796875 4.984375 -2.828125 C 3.867188 -3.859375 2.988281 -5.078125 2.34375 -6.484375 C 1.695312 -7.898438 1.375 -9.40625 1.375 -11 C 1.375 -12.5625 1.664062 -14.039062 2.25 -15.4375 C 2.84375 -16.832031 3.660156 -18.050781 4.703125 -19.09375 C 5.742188 -20.144531 6.957031 -20.976562 8.34375 -21.59375 C 9.726562 -22.21875 11.21875 -22.53125 12.8125 -22.53125 Z M 17.796875 -12.8125 C 17.441406 -14.070312 16.804688 -15.097656 15.890625 -15.890625 C 14.984375 -16.691406 13.957031 -17.09375 12.8125 -17.09375 C 11.632812 -17.09375 10.566406 -16.691406 9.609375 -15.890625 C 8.648438 -15.097656 7.992188 -14.070312 7.640625 -12.8125 Z M 17.796875 -12.8125 "/></g></g></g><g clip-path="url(#6f6356942a)"><path fill="#ffffff" d="M 7.921875 138.089844 L 73.34375 138.089844 L 73.34375 188.222656 L 7.921875 188.222656 Z M 78.09375 133.34375 L 3.171875 133.34375 L 3.171875 192.96875 L 78.09375 192.96875 Z M 68.652344 183.632812 L 12.613281 183.632812 L 12.613281 142.679688 L 40.632812 156.460938 L 68.652344 142.679688 L 68.652344 159.550781 L 63.113281 159.550781 L 63.113281 151.578125 L 40.632812 162.636719 L 18.152344 151.578125 L 18.152344 178.09375 L 63.113281 178.09375 L 63.113281 171.054688 L 52.964844 171.054688 L 52.964844 165.515625 L 68.652344 165.515625 L 68.652344 183.632812 " fill-opacity="1" fill-rule="nonzero"/></g></svg>