<svg width="482" height="81" viewBox="0 0 482 81" fill="none" xmlns="http://www.w3.org/2000/svg">
<path d="M152.135 11.3418V18.8835H149.01V45.6126H152.135V53.0918H136.947V45.6126H140.072V18.8835H136.947V11.3418H152.135Z" fill="#5271FF"/>
<path d="M172.704 23.8834C173.798 23.8834 175.016 24.0449 176.35 24.3626C177.683 24.6699 178.938 25.2532 180.121 26.1126C181.298 26.9772 182.287 28.1751 183.079 29.7168C183.881 31.248 184.287 33.2272 184.287 35.6543V53.0918H176.121V35.9459C176.121 35.0449 175.964 34.2793 175.662 33.6543C175.371 33.0293 174.975 32.5293 174.475 32.1543C173.985 31.7793 173.433 31.5084 172.808 31.3418C172.183 31.1647 171.558 31.0709 170.933 31.0709C170.417 31.0709 169.855 31.1647 169.246 31.3418C168.631 31.5084 168.063 31.7949 167.537 32.1959C167.006 32.5865 166.563 33.0918 166.204 33.7168C165.855 34.3418 165.683 35.0865 165.683 35.9459V53.0918H157.558V23.8834H164.516L165.683 26.1126C166.626 25.4459 167.688 24.9147 168.871 24.5084C170.048 24.0918 171.329 23.8834 172.704 23.8834Z" fill="#5271FF"/>
<path d="M206.277 23.0501C208.318 23.0501 210.219 23.4564 211.985 24.2585C213.745 25.0658 215.277 26.1699 216.568 27.571C217.87 28.9616 218.886 30.5866 219.61 32.446C220.329 34.3105 220.693 36.3001 220.693 38.4251C220.693 40.5501 220.329 42.5449 219.61 44.4043C218.886 46.2689 217.87 47.8991 216.568 49.3001C215.277 50.6908 213.745 51.7897 211.985 52.5918C210.219 53.3939 208.318 53.8001 206.277 53.8001C204.537 53.8001 202.87 53.4928 201.277 52.8835C199.693 52.2741 198.448 51.498 197.547 50.5501L196.381 53.0918H189.422V10.0918H197.547V26.2376C199.782 24.1126 202.693 23.0501 206.277 23.0501ZM205.152 46.5501C206.204 46.5501 207.193 46.3366 208.11 45.9043C209.037 45.4772 209.86 44.8991 210.568 44.1751C211.277 43.4408 211.823 42.5866 212.214 41.6126C212.599 40.6283 212.797 39.5658 212.797 38.4251C212.797 37.3314 212.599 36.2793 212.214 35.2793C211.823 34.2793 211.277 33.4199 210.568 32.696C209.86 31.9616 209.037 31.3783 208.11 30.946C207.193 30.5189 206.204 30.3001 205.152 30.3001C204.094 30.3001 203.099 30.446 202.172 30.7376C201.256 31.0293 200.448 31.5033 199.756 32.1543C199.073 32.8105 198.532 33.6543 198.131 34.696C197.74 35.7272 197.547 37.0085 197.547 38.5501C197.547 39.9251 197.74 41.1126 198.131 42.1126C198.532 43.1126 199.073 43.9408 199.756 44.5918C200.448 45.2324 201.256 45.7168 202.172 46.0501C203.099 46.3835 204.094 46.5501 205.152 46.5501Z" fill="#5271FF"/>
<path d="M238.544 23.0501C240.627 23.0501 242.591 23.4564 244.44 24.2584C246.284 25.0657 247.888 26.1699 249.252 27.5709C250.627 28.9616 251.716 30.5866 252.523 32.4459C253.325 34.3105 253.731 36.3001 253.731 38.4251C253.731 40.5501 253.325 42.5449 252.523 44.4043C251.716 46.2689 250.627 47.8991 249.252 49.3001C247.888 50.6907 246.284 51.7897 244.44 52.5918C242.591 53.3939 240.627 53.8001 238.544 53.8001C236.419 53.8001 234.429 53.3939 232.586 52.5918C230.752 51.7897 229.148 50.6907 227.773 49.3001C226.398 47.8991 225.304 46.2689 224.502 44.4043C223.695 42.5449 223.294 40.5501 223.294 38.4251C223.294 36.3001 223.695 34.3105 224.502 32.4459C225.304 30.5866 226.398 28.9616 227.773 27.5709C229.148 26.1699 230.752 25.0657 232.586 24.2584C234.429 23.4564 236.419 23.0501 238.544 23.0501ZM238.544 46.6751C239.528 46.6751 240.44 46.4824 241.273 46.0918C242.117 45.6907 242.867 45.1491 243.523 44.4668C244.174 43.7741 244.679 42.9459 245.044 41.9876C245.419 41.0293 245.606 39.9616 245.606 38.7793C245.606 37.6022 245.419 36.5032 245.044 35.4876C244.679 34.4616 244.174 33.5657 243.523 32.8001C242.867 32.0397 242.117 31.4355 241.273 30.9876C240.44 30.5293 239.528 30.3001 238.544 30.3001C237.554 30.3001 236.632 30.5293 235.773 30.9876C234.909 31.4355 234.153 32.0397 233.502 32.8001C232.862 33.5657 232.356 34.4616 231.981 35.4876C231.606 36.5032 231.419 37.6022 231.419 38.7793C231.419 39.9616 231.606 41.0293 231.981 41.9876C232.356 42.9459 232.862 43.7741 233.502 44.4668C234.153 45.1491 234.909 45.6907 235.773 46.0918C236.632 46.4824 237.554 46.6751 238.544 46.6751Z" fill="#5271FF"/>
<path d="M268.873 37.8418L258.456 23.8834H268.518L273.706 31.6543L278.893 23.8834H288.956L278.477 37.9043L289.852 53.0918H279.768L273.643 44.0293L267.518 53.0918H257.456L268.873 37.8418Z" fill="#5271FF"/>
<path d="M321.299 31.5918C322.95 32.5814 324.205 33.8366 325.07 35.3626C325.929 36.8939 326.362 38.6647 326.362 40.6751C326.362 42.5501 325.909 44.3105 325.008 45.9459C324.101 47.5709 322.825 49.0084 321.174 50.2584C319.685 51.3991 317.992 52.2741 316.091 52.8834C314.185 53.4928 312.174 53.8209 310.049 53.8626C307.924 53.8626 305.893 53.5709 303.966 52.9876C302.049 52.3939 300.346 51.5032 298.862 50.3209C296.622 48.6439 295.091 46.6022 294.258 44.1959L302.508 40.3626C302.508 40.7689 302.643 41.2584 302.924 41.8418C303.2 42.4251 303.633 42.998 304.216 43.5501C304.799 44.1074 305.56 44.5814 306.508 44.9668C307.45 45.3574 308.612 45.5501 309.987 45.5501C311.08 45.5501 312.054 45.4199 312.903 45.1543C313.747 44.8782 314.455 44.5293 315.028 44.1126C315.596 43.6959 316.028 43.2272 316.32 42.6959C316.612 42.1699 316.758 41.6282 316.758 41.0709C316.758 40.4459 316.549 39.8626 316.133 39.3209C315.726 38.7689 315.096 38.3314 314.237 38.0084C312.664 37.4668 311.008 37.0084 309.258 36.6334C307.508 36.2584 305.804 35.7897 304.153 35.2168C302.497 34.6491 300.966 33.8939 299.549 32.9459C298.143 32.0032 297.034 30.6907 296.216 29.0084C295.466 27.5084 295.091 25.9199 295.091 24.2376C295.091 22.3522 295.528 20.5241 296.403 18.7584C297.289 16.998 298.497 15.5032 300.028 14.2793C301.487 13.1439 303.117 12.2689 304.924 11.6543C306.726 11.0449 308.633 10.7376 310.633 10.7376C312.633 10.7376 314.539 11.0397 316.362 11.6334C318.195 12.2168 319.841 13.0814 321.299 14.2168C322.716 15.2897 323.83 16.5241 324.653 17.9251L317.945 22.5293C317.112 21.3939 316.075 20.4824 314.841 19.8001C313.601 19.1074 312.221 18.7584 310.695 18.7584C308.57 18.7584 306.929 19.2324 305.778 20.1751C304.622 21.123 304.049 22.3574 304.049 23.8834C304.049 24.5918 304.367 25.2272 305.008 25.7793C305.659 26.3209 306.508 26.8105 307.549 27.2376C308.591 27.6699 309.758 28.0501 311.049 28.3834C312.341 28.7168 313.622 29.0501 314.903 29.3834C316.179 29.7168 317.388 30.0657 318.528 30.4251C319.664 30.7741 320.591 31.1647 321.299 31.5918Z" fill="#5271FF"/>
<path d="M345.331 23.0501C347.524 23.0501 349.524 23.498 351.331 24.3834C353.133 25.2584 354.685 26.4199 355.977 27.8626C357.279 29.2949 358.289 30.9407 358.997 32.8001C359.706 34.6647 360.06 36.5814 360.06 38.5501C360.06 39.7324 359.899 40.9876 359.581 42.3209H338.727C339.518 43.6543 340.633 44.7897 342.081 45.7168C343.539 46.6334 345.112 47.0918 346.81 47.0918C348.487 47.0918 349.966 46.9564 351.247 46.6751C352.524 46.3991 353.732 46.0449 354.872 45.6126L357.581 50.6126C356.122 51.6439 354.461 52.4355 352.602 52.9876C350.737 53.5293 348.747 53.8001 346.622 53.8001C344.3 53.8001 342.143 53.3939 340.143 52.5918C338.143 51.7897 336.393 50.6959 334.893 49.3209C333.404 47.9459 332.232 46.3209 331.372 44.4459C330.508 42.5605 330.081 40.5501 330.081 38.4251C330.081 36.3418 330.466 34.373 331.247 32.5084C332.039 30.6491 333.128 29.0241 334.518 27.6334C335.904 26.2324 337.524 25.123 339.372 24.3001C341.216 23.4668 343.206 23.0501 345.331 23.0501ZM351.977 36.0084C351.503 34.3314 350.654 32.9616 349.435 31.9043C348.227 30.8366 346.857 30.3001 345.331 30.3001C343.758 30.3001 342.336 30.8366 341.06 31.9043C339.779 32.9616 338.904 34.3314 338.435 36.0084H351.977Z" fill="#5271FF"/>
<path d="M380.313 30.3001C379.323 30.3001 378.402 30.5293 377.542 30.9876C376.678 31.4355 375.922 32.0397 375.271 32.8001C374.631 33.5657 374.125 34.4616 373.75 35.4876C373.375 36.5032 373.188 37.6022 373.188 38.7793C373.188 39.9616 373.375 41.0293 373.75 41.9876C374.125 42.9459 374.631 43.7741 375.271 44.4668C375.922 45.1491 376.678 45.6907 377.542 46.0918C378.402 46.4824 379.323 46.6751 380.313 46.6751C381.532 46.6751 382.719 46.3939 383.875 45.8209C385.027 45.2532 386.021 44.4564 386.855 43.4251L391.855 48.3834C390.48 50.0397 388.792 51.3574 386.792 52.3418C384.792 53.3105 382.631 53.8001 380.313 53.8001C378.188 53.8001 376.198 53.3939 374.355 52.5918C372.521 51.7897 370.917 50.6907 369.542 49.3001C368.167 47.8991 367.073 46.2689 366.271 44.4043C365.464 42.5449 365.063 40.5501 365.063 38.4251C365.063 36.3001 365.464 34.3105 366.271 32.4459C367.073 30.5866 368.167 28.9616 369.542 27.5709C370.917 26.1699 372.521 25.0657 374.355 24.2584C376.198 23.4564 378.188 23.0501 380.313 23.0501C382.698 23.0501 384.917 23.5657 386.959 24.5918C389 25.6074 390.73 26.998 392.146 28.7584L386.5 33.1334C385.36 32.0657 384.323 31.3314 383.396 30.9251C382.48 30.5084 381.448 30.3001 380.313 30.3001Z" fill="#5271FF"/>
<path d="M414.771 23.8834H422.896V53.0918H415.938L414.771 50.8626C413.823 51.5293 412.755 52.0709 411.563 52.4876C410.365 52.8938 409.083 53.0918 407.708 53.0918C406.635 53.0918 405.422 52.9407 404.063 52.6334C402.714 52.3157 401.448 51.7272 400.271 50.8626C399.104 49.9876 398.115 48.7897 397.313 47.2584C396.505 45.7324 396.104 43.7532 396.104 41.3209V23.8834H404.292V41.0084C404.292 41.9147 404.438 42.6855 404.729 43.3209C405.021 43.9459 405.406 44.4459 405.896 44.8209C406.396 45.1959 406.958 45.4772 407.583 45.6543C408.208 45.8209 408.854 45.9043 409.521 45.9043C410.031 45.9043 410.594 45.8209 411.208 45.6543C411.818 45.4772 412.385 45.1907 412.917 44.8001C413.443 44.399 413.88 43.8834 414.229 43.2584C414.589 42.6334 414.771 41.8834 414.771 41.0084V23.8834Z" fill="#5271FF"/>
<path d="M436.274 27.9459C436.659 27.3209 437.107 26.7272 437.607 26.1543C438.117 25.5866 438.732 25.0814 439.44 24.6334C440.149 24.1751 440.951 23.8105 441.857 23.5293C442.758 23.2532 443.779 23.1126 444.92 23.1126C446.253 23.1126 447.805 23.3522 449.586 23.8209L448.815 31.0709C448.383 30.9876 447.951 30.8939 447.524 30.7793C447.159 30.6959 446.763 30.6282 446.336 30.5709C445.904 30.5032 445.513 30.4668 445.17 30.4668C443.904 30.4668 442.732 30.6491 441.649 31.0084C440.576 31.3574 439.649 31.8522 438.857 32.4876C438.076 33.1126 437.451 33.873 436.982 34.7584C436.508 35.6334 436.274 36.5866 436.274 37.6126V53.0918H428.149V23.8834H435.503L436.274 27.9459Z" fill="#5271FF"/>
<path d="M466.957 23.0501C469.149 23.0501 471.149 23.498 472.957 24.3834C474.759 25.2584 476.311 26.4199 477.602 27.8626C478.904 29.2949 479.915 30.9407 480.623 32.8001C481.332 34.6647 481.686 36.5814 481.686 38.5501C481.686 39.7324 481.524 40.9876 481.207 42.3209H460.352C461.144 43.6543 462.259 44.7897 463.707 45.7168C465.165 46.6334 466.738 47.0918 468.436 47.0918C470.113 47.0918 471.592 46.9564 472.873 46.6751C474.149 46.3991 475.358 46.0449 476.498 45.6126L479.207 50.6126C477.748 51.6439 476.087 52.4355 474.227 52.9876C472.363 53.5293 470.373 53.8001 468.248 53.8001C465.925 53.8001 463.769 53.3939 461.769 52.5918C459.769 51.7897 458.019 50.6959 456.519 49.3209C455.029 47.9459 453.858 46.3209 452.998 44.4459C452.134 42.5605 451.707 40.5501 451.707 38.4251C451.707 36.3418 452.092 34.373 452.873 32.5084C453.665 30.6491 454.753 29.0241 456.144 27.6334C457.529 26.2324 459.149 25.123 460.998 24.3001C462.842 23.4668 464.832 23.0501 466.957 23.0501ZM473.602 36.0084C473.128 34.3314 472.279 32.9616 471.061 31.9043C469.852 30.8366 468.483 30.3001 466.957 30.3001C465.384 30.3001 463.962 30.8366 462.686 31.9043C461.404 32.9616 460.529 34.3314 460.061 36.0084H473.602Z" fill="#5271FF"/>
<mask id="mask0_32_52" style="mask-type:luminance" maskUnits="userSpaceOnUse" x="0" y="0" width="101" height="81">
<path d="M0.229248 0.776062H100.229V80.3334H0.229248V0.776062Z" fill="white"/>
</mask>
<g mask="url(#mask0_32_52)">
<path d="M6.56258 7.11981H93.7918V73.9636H6.56258V7.11981ZM100.125 0.791687H0.229248V80.2917H100.125V0.791687ZM87.5365 67.8438H12.8178V13.2396L50.1772 31.6146L87.5365 13.2396V35.7344H80.1511V25.1042L50.1772 39.849L20.2032 25.1042V60.4584H80.1511V51.0729H66.6199V43.6875H87.5365V67.8438Z" fill="#5271FF"/>
</g>
</svg>
